<svg xmlns="http://www.w3.org/2000/svg" width="165" height="162" viewBox="0 0 165 165">

    <path
        fill="#676567"
        d="M7.9,135.38c0.13,7.71,5,10.88,10.75,10.88a20.57,20.57,0,0,0,8.68-1.62l1,4.08a25.36,25.36,0,0,1-10.43,1.94c-9.65,0-15.41-6.34-15.41-15.8S8,118,17.16,118c10.23,0,13,9,13,14.77a22.84,22.84,0,0,1-0.19,2.66Zm16.71-4.08c0.06-3.63-1.49-9.27-7.9-9.27-5.77,0-8.29,5.32-8.75,9.27Z" />
    <path
        fill="#676567"
        d="M64.25,104v37.89c0,2.79 0.06 ,6,0.26,8.1H59.39l-0.26-5.44H59a11.61,11.61,0,0,1-10.69,6.15c-7.57,0-13.4-6.41-13.4-15.94C34.84,124.37,41.32,118,49,118c4.8,0,8,2.27,9.46,4.8h0.13V104Zm-5.7,27.4a10.26,10.26,0,0,0-0.26-2.4,8.38,8.38,0,0,0-8.23-6.61c-5.89,0-9.39,5.18-9.39,12.12,0,6.34,3.11,11.59,9.26,11.59a8.57,8.57,0,0,0,8.36-6.8,10.15,10.15,0,0,0,0.26-2.46Z" />
    <path
        fill="#676567"
        d="M76.88,135.38c0.13,7.71,5.05,10.88,10.75,10.88a20.57,20.57,0,0,0,8.68-1.62l1,4.08a25.36,25.36,0,0,1-10.43,1.94c-9.65,0-15.41-6.34-15.41-15.8S77,118,86.14,118c10.24,0,13,9,13,14.77a20.42,20.42,0,0,1-0.2,2.66Zm16.71-4.08c0.06-3.63-1.49-9.27-7.9-9.27-5.77,0-8.29,5.32-8.75,9.27Z" />
    <path
        fill="#676567"
        d="M106.15,128.9c0-4-0.13-7.25-0.25-10.23H111l0.26,5.37h0.13A12.33,12.33,0,0,1,122.54,118c7.58,0,13.28,6.42,13.28,15.94,0,11.27-6.87,16.84-14.25,16.84-4.14,0-7.77-1.81-9.65-4.92h-0.13v17h-5.64Zm5.64,8.36a12.77,12.77,0,0,0,0.26,2.33,8.8,8.8,0,0,0,8.55,6.67c6,0,9.52-4.92,9.52-12.11,0-6.29-3.3-11.66-9.33-11.66a9.09,9.09,0,0,0-8.61,7.06,9,9,0,0,0-0.39,2.33Z" />
    <path
        fill="#676567"
        d="M160.37,150l-0.45-4h-0.2a11.69,11.69,0,0,1-9.59,4.66c-6.34,0-9.58-4.47-9.58-9,0-7.58,6.73-11.73,18.85-11.66v-0.65c0-2.59-0.72-7.26-7.13-7.26a15.58,15.58,0,0,0-8.16,2.34l-1.3-3.76a19.44,19.44,0,0,1,10.3-2.79c9.59,0,11.92,6.55,11.92,12.83V142.5a44.09,44.09,0,0,0,0.52,7.52Zm-0.84-16c-6.22-0.13-13.28,1-13.28,7.06a5,5,0,0,0,5.37,5.44,7.79,7.79,0,0,0,7.58-5.25,5.77,5.77,0,0,0,0.33-1.81Z" />
    <path
        fill="#e96058"
        d="M 33.92 47.49 H 61.54 V 95.08 H 33.92 V 47.49 Z" />
    <path
        fill="#e31837"
        d="M 67.84 0 H 95.48 V 95.08 H 67.84 V 0 Z" />
    <path
        fill="#e9625a"
        d="M102.87,92.87h25.42v-68H102.87Zm27.62,2.21H100.66V22.68h29.83Z" />
    <path
        fill="#e9625a"
        d="M 135.7 58.45 H 163.31 V 95.08 H 135.7 V 58.45 Z" />
    <path
        fill="#ea6b60"
        d="M27.61,68.66H0V95.08H27.61Zm-2.2,24.22H2.2v-22H25.41Z" />

</svg>